<svg xmlns="http://www.w3.org/2000/svg" width="24" height="24" viewBox="0 0 24 24">
    <g fill="none" fill-rule="evenodd">
        <path fill="#FFF" d="M4.724 18.028a.522.522 0 0 1-.524-.519c0-.285.235-.518.524-.518.288 0 .523.233.523.518a.522.522 0 0 1-.523.519zm2.244.3a.825.825 0 0 1-.827-.82c0-.45.372-.819.827-.819.456 0 .828.369.828.82a.825.825 0 0 1-.828.819zm10.096 0a.824.824 0 0 1-.826-.82c0-.45.37-.819.826-.819.456 0 .828.369.828.82a.826.826 0 0 1-.828.819zm2.245-.3a.522.522 0 0 1-.523-.519.522.522 0 1 1 1.047 0 .522.522 0 0 1-.524.519zm.949-3.233c0 .33-.247.599-.549.599H4.294c-.302 0-.548-.27-.548-.599V5.468c0-.108.026-.21.073-.299a.545.545 0 0 0 .475.3H19.71c.203 0 .38-.121.475-.3.046.087.074.19.074.3v9.326z"/>
        <path fill="#9E9E9E" d="M23.242 3.1h-2.153v-.502A.602.602 0 0 0 20.487 2H3.517a.603.603 0 0 0-.604.598V3.1H.761C.34 3.1 0 3.438 0 3.853V7.02c0 .417.341.754.76.754.422 0 .762-.338.762-.754V4.607h1.39v15.211c0 .33.273.598.604.598h.574v1.166c0 .23.19.418.422.418H5.57a.421.421 0 0 0 .422-.418v-1.166h12.024v1.166c0 .23.19.418.423.418h1.055a.421.421 0 0 0 .423-.418v-1.166h.568a.602.602 0 0 0 .603-.598V4.608h1.39V7.02c0 .416.342.753.762.753S24 7.437 24 7.021V3.854a.753.753 0 0 0-.758-.754zM4.724 18.028a.522.522 0 0 1-.524-.519c0-.285.235-.518.524-.518.288 0 .523.233.523.518a.522.522 0 0 1-.523.519zm2.244.3a.825.825 0 0 1-.827-.82c0-.45.372-.819.827-.819.456 0 .828.369.828.82a.825.825 0 0 1-.828.819zm10.096 0a.824.824 0 0 1-.826-.82c0-.45.37-.819.826-.819.456 0 .828.369.828.82a.826.826 0 0 1-.828.819zm2.245-.3a.522.522 0 0 1-.523-.519.522.522 0 1 1 1.047 0 .522.522 0 0 1-.524.519zm.949-3.233c0 .33-.247.599-.549.599H4.294c-.302 0-.548-.27-.548-.599V5.468c0-.108.026-.21.073-.299a.545.545 0 0 0 .475.3H19.71c.203 0 .38-.121.475-.3.046.087.074.19.074.3v9.326z"/>
    </g>
</svg>
