<svg xmlns="http://www.w3.org/2000/svg" viewBox="0 0 434.2 132.8">
  <path fill="#1C3E94" d="M188.1 93h245.4v2.7H188.1zM81.8 0C45.2 0 15.4 29.7 15.4 66.4s29.7 66.4 66.4 66.4 66.4-29.7 66.4-66.4S118.5 0 81.8 0m42.9 66.4c0 23.7-19.2 42.8-42.9 42.8-23.6 0-42.8-19.1-42.8-42.8 0-23.7 19.2-42.8 42.8-42.8 23.7 0 42.9 19.1 42.9 42.8"/>
  <path fill="#1C3E94" d="M0 53h163.4v26.9H0zM188.1 121.7v-13.5h8.4v2.7h-5.3v2.3h4.2v2.7h-4.2v3h5.8v2.8zM206 121.7h-3.4l-4.8-13.5h3.5l3 9.1 3-9.1h3.5zM212.3 121.7v-13.5h8.4v2.7h-5.3v2.3h4.2v2.7h-4.2v3h5.7v2.8zM226 110.7v3.2h1.1c.6 0 1.1-.2 1.4-.5.3-.3.5-.7.5-1.2 0-.4-.2-.8-.5-1.1-.3-.3-.8-.4-1.3-.4H226zm3.9 11l-3.4-5.1h-.5v5.1h-3.2v-13.6h4.6c1.5 0 2.7.4 3.5 1.1.8.7 1.3 1.7 1.3 3 0 .9-.2 1.6-.7 2.2-.4.6-1 1.1-1.8 1.4l3.9 5.8h-3.7zM241.9 116.2v5.5h-3.2v-5.5l-4.6-8h3.6l2.6 5 2.6-5h3.6zM261.1 117.4c0 1.4-.4 2.5-1.2 3.4-.8.8-1.9 1.2-3.4 1.2-.8 0-1.6-.2-2.2-.6-.6-.4-1.1-1-1.6-1.9l2.5-1.4c.3.7.8 1 1.3 1 .9 0 1.4-.7 1.4-2v-9h3.2v9.3zM270.1 119.1c1.2 0 2.1-.4 2.9-1.2.8-.8 1.2-1.8 1.2-3s-.4-2.2-1.2-3c-.8-.8-1.7-1.2-2.9-1.2-1.1 0-2.1.4-2.9 1.2-.8.8-1.2 1.8-1.2 3s.4 2.2 1.2 3c.8.8 1.7 1.2 2.9 1.2m0 2.9c-2 0-3.8-.7-5.1-2-1.4-1.4-2.1-3-2.1-5s.7-3.6 2.1-5c1.4-1.3 3.1-2 5.1-2 2.1 0 3.8.7 5.2 2 1.4 1.3 2.1 3 2.1 5s-.7 3.7-2.1 5c-1.5 1.3-3.2 2-5.2 2M291.4 115.4c0 1.3-.2 2.3-.4 3-.3.7-.7 1.3-1.2 1.9-.5.6-1.2 1-2 1.2-.8.3-1.7.4-2.7.4-.9 0-1.8-.1-2.5-.4-.7-.3-1.4-.7-1.9-1.3-.5-.6-.9-1.2-1.2-1.9-.3-.7-.4-1.7-.4-3V108h3.2v7.2c0 1.3.3 2.2.8 2.9.5.6 1.2 1 2.2 1 2 0 3-1.3 3-3.8v-7.2h3.2v7.3zM296.7 110.7v3.2h1.1c.6 0 1-.2 1.4-.5.3-.3.5-.7.5-1.2 0-.4-.2-.8-.5-1.1-.3-.3-.8-.4-1.3-.4h-1.2zm4 11l-3.4-5.1h-.6v5.1h-3.2v-13.6h4.6c1.5 0 2.7.4 3.5 1.1.8.7 1.3 1.7 1.3 3 0 .9-.2 1.6-.6 2.2-.4.6-1 1.1-1.8 1.4l3.9 5.8h-3.7zM314.8 121.7l-6-8.4v8.4h-3.2v-13.5h3.3l6 8.5v-8.5h3.2v13.5zM320.3 121.7v-13.5h8.5v2.7h-5.3v2.3h4.2v2.7h-4.2v3h5.7v2.8zM337.8 116.2v5.5h-3.1v-5.5l-4.7-8h3.7l2.6 5 2.6-5h3.6zM360.4 121.7v-8.4l-3.8 4.8-3.7-4.8v8.4h-3.2v-13.5h3l3.9 5.1 3.8-5.1h3.2v13.5zM371.6 111.9l-1.5 4.6h3l-1.5-4.6zm3.3 9.8l-.8-2.5h-4.8l-.8 2.5H365l5-13.6h3.2l5.1 13.6h-3.4zM385.9 111v10.7h-3.2V111h-3.6v-2.8h10.5v2.8zM397.2 111v10.7h-3.1V111h-3.7v-2.8h10.5v2.8zM402.4 121.7v-13.5h8.5v2.7h-5.3v2.3h4.2v2.7h-4.2v3h5.7v2.8zM416.2 110.7v3.2h1.1c.6 0 1-.2 1.4-.5.3-.3.5-.7.5-1.2 0-.4-.2-.8-.5-1.1-.3-.3-.7-.4-1.3-.4h-1.2zm3.9 11l-3.4-5.1h-.6v5.1H413v-13.6h4.6c1.5 0 2.7.4 3.5 1.1.8.7 1.2 1.7 1.2 3 0 .9-.2 1.6-.6 2.2-.4.6-1 1.1-1.8 1.4l3.9 5.8h-3.7zM424.5 119l2.4-1.4c.5 1.1 1.2 1.6 2.3 1.6.6 0 1-.1 1.3-.4.3-.2.5-.6.5-1s-.1-.6-.4-.9c-.3-.3-.9-.6-2.1-1.1-1.3-.6-2.2-1.2-2.7-1.8-.5-.6-.7-1.4-.7-2.3 0-1.1.4-2 1.3-2.8.8-.8 1.9-1.1 3.2-1.1 1.9 0 3.2.7 4.1 2.2l-2.2 1.4c-.4-.7-1-1.1-1.9-1.1-.4 0-.8.1-1 .3-.3.2-.4.5-.4.8 0 .3.2.6.4.9.3.2.9.6 1.8 1 1.4.6 2.3 1.3 2.9 1.9.6.6.8 1.5.8 2.4 0 1.2-.5 2.2-1.5 3-1 .8-2.2 1.2-3.6 1.2-1.9.2-3.5-.8-4.5-2.8M201.5 16.3v21h-6.2v-21h-7.2v-5.6h20.6v5.6zM218 15.7V22h2.2c1.1 0 2.1-.3 2.7-.9.7-.6 1-1.4 1-2.3 0-.9-.3-1.6-1-2.2-.6-.6-1.5-.9-2.6-.9H218zm7.8 21.6l-6.6-10.1H218v10.1h-6.3V10.7h9.1c3 0 5.3.7 6.9 2.2 1.6 1.4 2.5 3.4 2.5 5.9 0 1.7-.4 3.1-1.3 4.4-.8 1.2-2.1 2.2-3.6 2.8l7.6 11.4h-7.1zM246.9 18l-3 9.1h6l-3-9.1zm6.5 19.3l-1.6-4.8h-9.5l-1.6 4.8h-6.8l9.8-26.6h6.3l10.1 26.6h-6.7zM280.9 37.3l-11.7-16.4v16.4H263V10.7h6.3l11.9 16.7V10.7h6.2v26.6zM290.8 32.1l4.7-2.8c.9 2.2 2.4 3.2 4.4 3.2 1.1 0 1.9-.2 2.6-.7.6-.5 1-1.1 1-1.9 0-.7-.2-1.3-.7-1.8-.5-.5-1.8-1.3-4.1-2.3-2.6-1.1-4.3-2.3-5.3-3.5-.9-1.2-1.4-2.7-1.4-4.4 0-2.1.8-4 2.5-5.4 1.7-1.5 3.8-2.2 6.3-2.2 3.7 0 6.4 1.5 8 4.4l-4.3 2.8c-.8-1.4-2.1-2.1-3.7-2.1-.8 0-1.5.2-2 .6-.5.4-.8.9-.8 1.6 0 .7.3 1.2.8 1.7s1.7 1.1 3.5 2c2.7 1.3 4.6 2.5 5.7 3.8 1.1 1.3 1.7 2.9 1.7 4.8 0 2.4-1 4.3-2.8 5.8-1.9 1.5-4.2 2.3-7 2.3-4.2-.2-7.2-2.1-9.1-5.9M319.5 15.8v7.7h2c1.5 0 2.6-.3 3.4-1 .8-.7 1.2-1.6 1.2-2.8 0-1.3-.4-2.2-1.2-2.9-.8-.7-1.9-1-3.4-1h-2zm0 12.8v8.7h-6.3V10.7h8.9c3.2 0 5.7.8 7.5 2.4 1.8 1.6 2.7 3.8 2.7 6.5 0 2.8-1 5-2.8 6.6-1.9 1.6-4.4 2.4-7.6 2.4h-2.4zM349 32.2c2.3 0 4.1-.8 5.7-2.4 1.5-1.6 2.3-3.5 2.3-5.9 0-2.3-.8-4.3-2.3-5.9-1.5-1.6-3.4-2.3-5.7-2.3-2.3 0-4.1.8-5.7 2.4-1.5 1.6-2.3 3.5-2.3 5.8s.8 4.3 2.3 5.9c1.6 1.6 3.5 2.4 5.7 2.4m0 5.6c-4 0-7.4-1.3-10.1-4-2.7-2.7-4.1-5.9-4.1-9.8 0-3.9 1.3-7.2 4.1-9.8 2.7-2.7 6.1-4 10.1-4s7.4 1.3 10.1 4c2.7 2.6 4.1 5.9 4.1 9.8 0 3.9-1.4 7.2-4.1 9.9-2.7 2.6-6 3.9-10.1 3.9M373 15.7V22h2.2c1.1 0 2.1-.3 2.7-.9.7-.6 1-1.4 1-2.3 0-.9-.3-1.6-1-2.2-.6-.6-1.5-.9-2.6-.9H373zm7.8 21.6l-6.6-10.1H373v10.1h-6.3V10.7h9.1c3 0 5.3.7 6.9 2.2 1.6 1.4 2.5 3.4 2.5 5.9 0 1.7-.4 3.1-1.3 4.4-.8 1.2-2 2.2-3.6 2.8l7.6 11.4h-7.1zM402.6 16.3v21h-6.3v-21h-7.2v-5.6h20.7v5.6zM194.3 58.3v4.6h8.4v5.4h-8.4v11.3h-6.2V53h16.8v5.3zM221.2 74.5c2.3 0 4.1-.8 5.7-2.4 1.5-1.6 2.3-3.5 2.3-5.9 0-2.3-.8-4.3-2.3-5.8-1.5-1.6-3.4-2.3-5.7-2.3-2.3 0-4.1.8-5.7 2.4-1.5 1.6-2.3 3.5-2.3 5.8s.8 4.3 2.3 5.8c1.6 1.6 3.5 2.4 5.7 2.4m0 5.6c-4 0-7.4-1.3-10.1-4-2.7-2.7-4.1-5.9-4.1-9.8 0-3.9 1.3-7.2 4.1-9.8 2.7-2.7 6.1-4 10.1-4s7.4 1.3 10.1 4c2.7 2.6 4.1 5.9 4.1 9.8 0 3.9-1.4 7.2-4.1 9.9-2.7 2.6-6.1 3.9-10.1 3.9M245.2 58v6.3h2.2c1.1 0 2.1-.3 2.7-.9.7-.6 1-1.4 1-2.3 0-.8-.3-1.6-.9-2.2-.6-.6-1.5-.9-2.6-.9h-2.4zm7.8 21.6l-6.6-10.1h-1.2v10.1H239V53h9.1c3 0 5.3.7 6.9 2.2 1.6 1.4 2.5 3.4 2.5 5.9 0 1.7-.4 3.1-1.3 4.4-.8 1.2-2.1 2.2-3.6 2.8l7.6 11.4H253zM271.3 79.6V53h6.2v21h10.2v5.6zM304.1 74.5c2.3 0 4.1-.8 5.7-2.4 1.5-1.6 2.3-3.5 2.3-5.9 0-2.3-.8-4.3-2.3-5.8-1.5-1.6-3.4-2.3-5.7-2.3-2.3 0-4.2.8-5.7 2.4-1.5 1.6-2.3 3.5-2.3 5.8s.8 4.3 2.3 5.8c1.5 1.6 3.4 2.4 5.7 2.4m0 5.6c-4 0-7.4-1.3-10.1-4-2.7-2.7-4.1-5.9-4.1-9.8 0-3.9 1.3-7.2 4.1-9.8 2.7-2.7 6.1-4 10.1-4s7.4 1.3 10.1 4c2.7 2.6 4.1 5.9 4.1 9.8 0 3.9-1.4 7.2-4.1 9.9-2.7 2.6-6.1 3.9-10.1 3.9M339.7 79.6L328 63.1v16.5h-6.2V53h6.3l11.8 16.7V53h6.3v26.6zM356.8 58.2v16.2h1.7c2.9 0 5.2-.7 6.8-2.1 1.6-1.4 2.5-3.4 2.5-6s-.8-4.6-2.5-6c-1.6-1.4-3.9-2.1-6.8-2.1h-1.7zm-6.2 21.4V53h8.6c4.5 0 8.1 1.2 10.8 3.5 2.7 2.4 4 5.6 4 9.6 0 4.3-1.3 7.6-4.1 10-2.7 2.4-6.4 3.5-11.2 3.5h-8.1zM390.9 74.5c2.3 0 4.1-.8 5.7-2.4 1.5-1.6 2.3-3.5 2.3-5.9 0-2.3-.8-4.3-2.3-5.8-1.5-1.6-3.4-2.3-5.7-2.3-2.3 0-4.1.8-5.6 2.4-1.5 1.6-2.3 3.5-2.3 5.8s.8 4.3 2.3 5.8c1.4 1.6 3.3 2.4 5.6 2.4m0 5.6c-4 0-7.4-1.3-10.1-4-2.7-2.7-4.1-5.9-4.1-9.8 0-3.9 1.3-7.2 4-9.8 2.7-2.7 6.1-4 10.1-4s7.4 1.3 10.1 4c2.7 2.6 4.1 5.9 4.1 9.8 0 3.9-1.4 7.2-4.1 9.9-2.6 2.6-6 3.9-10 3.9M427 79.6l-11.7-16.5v16.5h-6.2V53h6.3l11.8 16.7V53h6.3v26.6z"/>
</svg>
